<svg xmlns="http://www.w3.org/2000/svg" width="32" height="32" viewBox="0 0 32 32" fill="none">
  <rect width="32" height="32" rx="8" fill="#0EA5E9"/>
  <path d="M8 8H24V24H8V8Z" fill="white" fill-opacity="0.2"/>
  <path d="M10 12H22" stroke="white" stroke-width="2" stroke-linecap="round"/>
  <path d="M10 16H18" stroke="white" stroke-width="2" stroke-linecap="round"/>
  <path d="M10 20H20" stroke="white" stroke-width="2" stroke-linecap="round"/>
  
  <!-- Hindi letter 'ग' (ga) stylized -->
  <path d="M22 15C22.5 15 23 15.5 23 16C23 16.5 22.5 17 22 17C21.5 17 21 16.5 21 16C21 15.5 21.5 15 22 15Z" fill="white"/>
  <path d="M25 15C25.5 15 26 15.5 26 16C26 16.5 25.5 17 25 17C24.5 17 24 16.5 24 16C24 15.5 24.5 15 25 15Z" fill="white"/>
  <path d="M22 18V20C22 21.1 22.9 22 24 22H26" stroke="white" stroke-width="1.5" stroke-linecap="round"/>
</svg> 